<svg width="200" height="200" viewBox="0 0 200 200" fill="none" xmlns="http://www.w3.org/2000/svg">
<g clip-path="url(#clip0_54_4)">
<circle cx="99.7645" cy="99.7645" r="98" fill="white" stroke="black" stroke-width="4"/>
<circle cx="66.9187" cy="120.764" r="28" stroke="black" stroke-width="4"/>
<circle cx="132.919" cy="120.764" r="28" stroke="black" stroke-width="4"/>
<rect x="94.4187" y="119.264" width="11" height="3" fill="black" stroke="black"/>
<path d="M99.9187 30.7645C107.863 30.7645 114.965 32.9146 120.022 36.286C125.094 39.6669 127.919 44.1184 127.919 48.7645C127.919 53.4106 125.094 57.8621 120.022 61.243C114.965 64.6144 107.863 66.7645 99.9187 66.7645C91.9744 66.7645 84.8725 64.6144 79.8151 61.243C74.7438 57.8621 71.9187 53.4106 71.9187 48.7645C71.9187 44.1184 74.7438 39.6669 79.8151 36.286C84.8725 32.9146 91.9744 30.7645 99.9187 30.7645Z" stroke="black" stroke-width="4"/>
<path d="M55.2599 41.3778C62.9335 39.3217 70.3499 39.5604 76.1075 41.508C81.8811 43.4612 85.7621 47.0298 86.9646 51.5176C88.1671 56.0053 86.5904 61.0364 82.5668 65.6146C78.5544 70.1801 72.251 74.095 64.5774 76.1512C56.9038 78.2073 49.4874 77.9686 43.7298 76.021C37.9562 74.0679 34.0752 70.4992 32.8727 66.0114C31.6702 61.5237 33.247 56.4926 37.2705 51.9144C41.2829 47.3489 47.5863 43.434 55.2599 41.3778Z" stroke="black" stroke-width="4"/>
<path d="M144.577 41.3778C152.251 43.434 158.554 47.3489 162.567 51.9144C166.59 56.4926 168.167 61.5237 166.965 66.0114C165.762 70.4992 161.881 74.0678 156.107 76.021C150.35 77.9686 142.933 78.2073 135.26 76.1512C127.586 74.095 121.283 70.1801 117.27 65.6146C113.247 61.0364 111.67 56.0053 112.873 51.5176C114.075 47.0298 117.956 43.4611 123.73 41.508C129.487 39.5604 136.904 39.3217 144.577 41.3778Z" stroke="black" stroke-width="4"/>
<rect x="166.233" y="30.468" width="4" height="7" transform="rotate(45 166.233 30.468)" fill="black"/>
<rect x="35.4178" y="161.283" width="4" height="7" transform="rotate(45 35.4178 161.283)" fill="black"/>
<rect x="169.061" y="166.233" width="4" height="7" transform="rotate(135 169.061 166.233)" fill="black"/>
<rect x="38.2462" y="35.4178" width="4" height="7" transform="rotate(135 38.2462 35.4178)" fill="black"/>
<rect x="97.7645" y="3.7645" width="4" height="7" fill="black"/>
<rect x="97.7645" y="188.765" width="4" height="7" fill="black"/>
<rect x="195.764" y="97.7645" width="4" height="7" transform="rotate(90 195.764 97.7645)" fill="black"/>
<rect x="10.7645" y="97.7645" width="4" height="7" transform="rotate(90 10.7645 97.7645)" fill="black"/>
</g>
<defs>
<clipPath id="clip0_54_4">
<rect width="200" height="200" fill="white"/>
</clipPath>
</defs>
</svg>
